Genre:Action | Crime | Thriller
Language:English
IMDb:http://www.imdb.com/title/tt1135084/
Source:BluRay.x264-METiS
Subtitles:Romana


File size : 2.04 GiB
Duration : 1h 47mn
Overall bit rate : 2 734 Kbps


Video
Format settings, CABAC : Yes
Format settings, ReFrames : 4 frames
Codec ID : V_MPEG4/ISO/AVC
Duration : 1h 47mn
Bit rate : 2 295 Kbps
Nominal bit rate : 2 457 Kbps
Width : 1 280 pixels
Height : 536 pixels
Display aspect ratio : 2.35:1
Frame rate mode : Variable
Frame rate : 23.976 fps
Color space : YUV
Chroma subsampling : 4:2:0
Bit depth : 8 bits
Scan type : Progressive
Bits/(Pixel*Frame) : 0.140
Stream size : 1.72 GiB (84%)
Writing library : x264

Audio
ID : 2
Format : AC-3
Format/Info : Audio Coding 3
Mode extension : CM (complete main)
Codec ID : A_AC3
Duration : 1h 47mn
Bit rate mode : Constant
Bit rate : 384 Kbps
Channel(s) : 6 channels
Channel positions : Front: L C R, Side: L R, LFE
Sampling rate : 48.0 KHz
Bit depth : 16 bits
Video delay : -1mn 5s
Stream size : 294 MiB (14%)
Language : English


Plot
A group of bank robbers find their $20 million plan interrupted by a hard-boiled detective







================================== 
http://thepiratebay.org/user/hiest
==================================







Screenshots:
 
http://www.rapidhdd.com/images/188171vlcsnap-2010-12-19-07h12m23s132.png
 
http://www.rapidhdd.com/images/228743vlcsnap-2010-12-19-07h12m52s149.png
 
http://www.rapidhdd.com/images/512957vlcsnap-2010-12-19-07h13m57s43.png
 
http://www.rapidhdd.com/images/797453vlcsnap-2010-12-19-07h14m28s109.png
 
http://www.rapidhdd.com/images/114419vlcsnap-2010-12-19-07h14m42s246.png